<svg xmlns="http://www.w3.org/2000/svg" width="24.495" height="16" viewBox="0 0 24.495 16"><g transform="translate(-1018.563 -1138.427)"><path d="M1031,1138.427a13.394,13.394,0,0,1,11.98,7.619,1.029,1.029,0,0,1-.012.828,13.178,13.178,0,0,1-9.731,7.329,13.369,13.369,0,0,1-14.612-7.436.916.916,0,0,1,.03-.715,13.4,13.4,0,0,1,10.426-7.507C1029.647,1138.458,1030.231,1138.471,1031,1138.427Zm-.2,13.486a5.492,5.492,0,0,0,.086-10.983,5.492,5.492,0,1,0-.086,10.983Z" transform="translate(0)"/><path d="M1104.942,1180.942a3.434,3.434,0,0,1,3.459,3.424,3.488,3.488,0,0,1-3.458,3.447,3.434,3.434,0,0,1-3.412-3.419A3.394,3.394,0,0,1,1104.942,1180.942Z" transform="translate(-74.132 -37.938)"/></g></svg>