<svg xmlns="http://www.w3.org/2000/svg" width="15.996" height="16" viewBox="0 0 15.996 16"><defs><style>.a{fill:#a5a5a5;}</style></defs><g transform="translate(-74.919 -1530.483)"><path class="a" d="M79.925,1548.655c0,.62,0,1.222-.006,1.824,0,.057-.072.13-.129.167a6.041,6.041,0,0,0-2.65,3.588,6.186,6.186,0,0,0,3.965,7.5,5.9,5.9,0,0,0,6.516-2.061,6.067,6.067,0,0,0,1.263-4.293,6.005,6.005,0,0,0-2.852-4.731.234.234,0,0,1-.127-.226c.006-.536,0-1.072,0-1.608,0-.049.005-.1.008-.148a7.905,7.905,0,0,1,4.99,7.724,7.993,7.993,0,1,1-10.981-7.733Z" transform="translate(0 -17.538)"/><path class="a" d="M275.359,1534.484c0-1,0-2.009,0-3.014a1,1,0,0,1,1.949-.294,1.1,1.1,0,0,1,.052.328q0,2.988,0,5.977a1,1,0,1,1-2,0C275.357,1536.481,275.359,1535.483,275.359,1534.484Z" transform="translate(-193.445 0)"/></g></svg>